<svg xmlns="http://www.w3.org/2000/svg" xmlns:xlink="http://www.w3.org/1999/xlink" width="500" zoomAndPan="magnify" viewBox="0 0 375 374.999991" height="500" preserveAspectRatio="xMidYMid meet" version="1.0"><defs><g/><clipPath id="3a4b653d53"><path d="M 37.5 114.03125 L 337.945312 114.03125 L 337.945312 250.597656 L 37.5 250.597656 Z M 37.5 114.03125 " clip-rule="nonzero"/></clipPath></defs><rect x="-37.5" width="450" fill="#ffffff" y="-37.499999" height="449.999989" fill-opacity="1"/><rect x="-37.5" width="450" fill="#ffffff" y="-37.499999" height="449.999989" fill-opacity="1"/><rect x="-37.5" width="450" fill="#ffffff" y="-37.499999" height="449.999989" fill-opacity="1"/><g clip-path="url(#3a4b653d53)"><path fill="#000000" d="M 246.578125 114.453125 C 246.882812 115.414062 246.359375 116.117188 246.054688 116.839844 C 242.835938 124.503906 238.835938 131.789062 235.167969 139.238281 C 229.007812 151.761719 222.636719 164.171875 217.414062 177.144531 C 214.316406 184.835938 210.855469 192.390625 207.6875 200.0625 C 207.441406 200.660156 207.21875 201.855469 206.480469 201.519531 C 205.582031 201.109375 206.429688 200.1875 206.691406 199.550781 C 210.636719 189.996094 214.53125 180.421875 218.59375 170.914062 C 222.714844 161.261719 227.679688 152.003906 232.296875 142.578125 C 236.710938 133.566406 241.203125 124.589844 245.664062 115.601562 C 245.859375 115.207031 245.941406 114.71875 246.578125 114.453125 Z M 132.941406 115.304688 C 133.691406 117.839844 134.425781 120.378906 135.453125 122.828125 C 139.074219 131.460938 143.09375 139.964844 146.015625 148.851562 C 151.886719 166.703125 159.472656 183.902344 165.761719 201.589844 C 165.953125 202.128906 165.996094 203.21875 166.882812 202.886719 C 167.660156 202.597656 166.957031 201.816406 166.800781 201.296875 C 165.351562 196.46875 163.453125 191.792969 161.597656 187.117188 C 152.144531 163.277344 143.335938 139.191406 133.984375 115.316406 C 133.792969 114.832031 133.71875 114.203125 132.9375 114.03125 C 132.691406 114.527344 132.824219 114.914062 132.941406 115.304688 Z M 240.386719 229.375 C 247.773438 226.011719 255.140625 222.609375 262.503906 219.210938 C 273.808594 213.988281 284.996094 208.507812 296.367188 203.417969 C 305.121094 199.496094 314.039062 195.917969 322.445312 191.257812 C 323.0625 190.917969 323.867188 190.773438 324.339844 189.601562 C 294.917969 202.648438 266.304688 216.566406 237.429688 229.941406 C 238.566406 230.277344 239.488281 229.785156 240.386719 229.375 Z M 246.582031 250.128906 C 256.707031 249.816406 266.832031 250.453125 276.960938 250.089844 C 284.21875 249.828125 291.480469 250.304688 298.742188 250.4375 C 307.796875 250.597656 316.835938 250.074219 325.882812 249.730469 C 329.5625 249.59375 333.242188 249.484375 336.921875 249.355469 C 337.324219 249.339844 337.902344 249.34375 337.886719 248.847656 C 337.867188 248.25 337.253906 248.488281 336.898438 248.5 C 334.804688 248.566406 332.710938 248.679688 330.613281 248.757812 C 312.878906 249.445312 295.125 248.855469 277.386719 249.421875 C 266.394531 249.773438 255.402344 248.71875 244.402344 249.226562 C 243.773438 249.257812 243.085938 249.0625 242.464844 249.761719 C 243.878906 250.195312 245.238281 250.167969 246.582031 250.128906 Z M 131.027344 248.871094 C 128.933594 248.804688 126.835938 248.785156 124.742188 248.734375 C 116.042969 248.523438 107.378906 249.515625 98.6875 249.394531 C 90.664062 249.28125 82.640625 248.964844 74.617188 248.851562 C 62.707031 248.6875 50.796875 248.929688 38.886719 249.101562 C 38.40625 249.105469 37.648438 248.921875 37.621094 249.589844 C 37.589844 250.382812 38.382812 250.054688 38.8125 250.054688 C 44.539062 250.09375 50.265625 250.164062 55.992188 250.109375 C 76.59375 249.910156 97.195312 250.21875 117.796875 249.75 C 122.039062 249.652344 126.28125 249.742188 130.527344 249.714844 C 131.152344 249.707031 131.867188 249.910156 132.402344 249.316406 C 132.058594 248.769531 131.503906 248.886719 131.027344 248.871094 Z M 54.355469 190.394531 C 64.542969 195.132812 74.734375 199.84375 84.515625 205.410156 C 97.882812 213.015625 112.117188 218.953125 125.660156 226.238281 C 129.207031 228.148438 132.957031 229.675781 136.625 231.355469 C 136.929688 231.496094 137.390625 231.984375 137.636719 231.363281 C 137.808594 230.945312 137.296875 230.8125 136.996094 230.652344 C 136.003906 230.125 135.015625 229.589844 134.007812 229.09375 C 125.476562 224.90625 116.894531 220.832031 108.425781 216.527344 C 90.214844 207.265625 71.984375 198.042969 53.65625 189.015625 C 53.222656 188.800781 52.8125 188.382812 52.070312 188.777344 C 52.660156 189.699219 53.546875 190.015625 54.355469 190.394531 Z M 188.121094 133.351562 C 188.03125 140.023438 187.910156 146.695312 187.851562 153.367188 C 187.726562 168.136719 187.523438 182.910156 187.777344 197.683594 C 187.789062 198.332031 187.539062 199.417969 188.5 199.386719 C 189.363281 199.355469 188.984375 198.3125 189.007812 197.714844 C 189.394531 186.867188 188.554688 176.027344 188.90625 165.171875 C 189.234375 154.941406 188.992188 144.691406 188.984375 134.449219 C 188.984375 133.816406 189.175781 133.117188 188.546875 132.507812 C 188.136719 132.742188 188.125 133.035156 188.121094 133.351562 Z M 273.113281 166.273438 C 272.757812 166.449219 272.433594 166.710938 272.144531 166.984375 C 268.109375 170.808594 264.117188 174.679688 260.042969 178.464844 C 255.292969 182.871094 250.410156 187.136719 245.703125 191.585938 C 239.027344 197.886719 232.5625 204.40625 226.214844 211.035156 C 225.789062 211.476562 225.386719 211.9375 225.003906 212.414062 C 224.8125 212.652344 224.664062 212.980469 224.917969 213.242188 C 225.25 213.582031 225.574219 213.363281 225.839844 213.101562 C 226.566406 212.382812 227.273438 211.644531 227.996094 210.929688 C 231.84375 207.128906 235.878906 203.5 239.496094 199.496094 C 244.671875 193.765625 250.183594 188.410156 256.066406 183.425781 C 261.796875 178.566406 267.074219 173.234375 272.476562 168.035156 C 272.910156 167.613281 273.285156 167.132812 273.632812 166.742188 C 273.605469 166.277344 273.351562 166.152344 273.113281 166.273438 Z M 104.117188 164.859375 C 104.390625 165.664062 105.046875 166.183594 105.621094 166.746094 C 118.035156 178.941406 129.785156 191.789062 142.1875 203.996094 C 144.953125 206.71875 147.574219 209.574219 150.1875 212.441406 C 150.476562 212.757812 150.851562 213.257812 151.332031 212.824219 C 151.8125 212.390625 151.347656 212 151.046875 211.667969 C 149.945312 210.464844 148.851562 209.25 147.722656 208.074219 C 140.371094 200.414062 132.664062 193.105469 125.230469 185.53125 C 119.371094 179.5625 113.855469 173.261719 107.722656 167.554688 C 106.628906 166.535156 105.523438 165.535156 104.421875 164.527344 C 104.320312 164.636719 104.21875 164.75 104.117188 164.859375 Z M 159.085938 206.621094 C 158.960938 205.4375 158.21875 204.511719 157.597656 203.558594 C 152.535156 195.785156 147.546875 187.960938 142.214844 180.363281 C 141.101562 178.777344 140.011719 177.175781 138.886719 175.597656 C 138.695312 175.324219 138.417969 174.949219 138.019531 175.253906 C 137.699219 175.496094 137.976562 175.808594 138.105469 176.066406 C 138.222656 176.292969 138.371094 176.503906 138.511719 176.714844 C 144.085938 184.882812 149.953125 192.855469 154.894531 201.441406 C 155.992188 203.347656 157.417969 205.066406 158.691406 206.871094 C 158.824219 206.789062 158.957031 206.703125 159.085938 206.621094 Z M 178.570312 199.449219 C 178.5625 197.847656 177.9375 196.367188 177.644531 194.824219 C 175.695312 184.589844 173.769531 174.347656 171.8125 164.113281 C 171.675781 163.410156 171.695312 162.105469 170.960938 162.257812 C 170.050781 162.449219 170.5625 163.632812 170.714844 164.363281 C 172.660156 173.71875 174.992188 182.996094 176.171875 192.5 C 176.492188 195.109375 177.253906 197.636719 178.042969 200.21875 C 178.617188 199.960938 178.570312 199.683594 178.570312 199.449219 Z M 143.019531 218.949219 C 141.476562 217.523438 139.71875 216.382812 137.992188 215.195312 C 132.273438 211.261719 126.550781 207.335938 121.070312 203.0625 C 119.34375 201.714844 117.507812 200.5 115.699219 199.257812 C 115.351562 199.019531 114.808594 198.6875 114.503906 199.234375 C 114.261719 199.671875 114.78125 199.945312 115.097656 200.171875 C 116.128906 200.921875 117.175781 201.652344 118.234375 202.363281 C 120.058594 203.585938 121.925781 204.742188 123.71875 206.011719 C 129.964844 210.4375 135.84375 215.363281 142.246094 219.578125 C 142.757812 219.914062 143.164062 220.597656 144.003906 220.265625 C 143.90625 219.632812 143.414062 219.316406 143.019531 218.949219 Z M 133.878906 239.421875 C 133.65625 239.308594 133.445312 239.128906 133.210938 239.089844 C 128.429688 238.285156 123.832031 236.714844 119.074219 235.800781 C 113.359375 234.707031 107.871094 232.722656 102.183594 231.539062 C 101.171875 231.328125 100.105469 230.816406 98.941406 231.355469 C 99.480469 232.109375 100.21875 232.15625 100.890625 232.324219 C 105.433594 233.480469 110 234.519531 114.582031 235.523438 C 119.253906 236.550781 123.835938 237.976562 128.484375 239.136719 C 130.214844 239.570312 132 239.953125 133.808594 239.800781 C 133.832031 239.675781 133.855469 239.546875 133.878906 239.421875 Z M 233.867188 221.308594 C 235.28125 220.304688 236.664062 219.257812 238.074219 218.25 C 244.832031 213.421875 251.601562 208.609375 258.355469 203.769531 C 259.136719 203.207031 259.839844 202.53125 260.554688 201.878906 C 260.796875 201.664062 261.210938 201.390625 260.847656 201.011719 C 260.585938 200.738281 260.269531 201.019531 260.035156 201.183594 C 258.855469 201.988281 257.699219 202.828125 256.523438 203.636719 C 252.523438 206.371094 249.0625 209.816406 244.925781 212.375 C 241.0625 214.765625 237.359375 217.386719 233.78125 220.183594 C 233.230469 220.609375 232.566406 220.960938 232.386719 221.8125 C 233.125 222.042969 233.476562 221.585938 233.867188 221.308594 Z M 219.417969 203.496094 C 223.226562 197.351562 227.070312 191.230469 231.402344 185.429688 C 233.050781 183.222656 234.511719 180.894531 235.875 178.503906 C 236.121094 178.074219 236.558594 177.445312 236.066406 177.136719 C 235.511719 176.792969 235.222656 177.527344 234.980469 177.929688 C 229.714844 186.648438 223.738281 194.902344 218.242188 203.46875 C 217.574219 204.511719 216.761719 205.488281 216.542969 206.785156 C 217.90625 206 218.652344 204.726562 219.417969 203.496094 Z M 198.066406 199.71875 C 198.207031 199.191406 198.375 198.667969 198.480469 198.132812 C 200.460938 187.960938 202.25 177.75 204.632812 167.65625 C 204.878906 166.621094 205.03125 165.558594 205.191406 164.503906 C 205.25 164.113281 205.277344 163.578125 204.75 163.515625 C 204.222656 163.457031 204.191406 164.011719 204.0625 164.378906 C 204 164.566406 204.003906 164.78125 203.976562 164.980469 C 202.574219 174.332031 200.46875 183.546875 198.613281 192.8125 C 198.164062 195.058594 197.714844 197.347656 197.664062 199.660156 C 197.796875 199.679688 197.933594 199.699219 198.066406 199.71875 Z M 274.921875 232.539062 C 263.789062 234.867188 252.648438 237.148438 241.675781 240.183594 C 243.960938 240.527344 274.21875 233.535156 274.921875 232.539062 Z M 95.085938 230.632812 C 95.234375 230.648438 95.488281 230.484375 95.550781 230.34375 C 95.683594 230.042969 95.429688 229.871094 95.183594 229.804688 C 93.414062 229.3125 91.683594 228.621094 89.761719 228.839844 C 91.410156 229.824219 93.1875 230.421875 95.085938 230.632812 Z M 133.066406 167.890625 C 132.9375 167.855469 132.683594 167.875 132.664062 167.925781 C 132.609375 168.101562 132.5625 168.335938 132.640625 168.480469 C 133.339844 169.789062 134.199219 170.988281 135.171875 172.109375 C 135.351562 172.316406 135.59375 172.421875 135.851562 172.292969 C 135.953125 172.238281 135.988281 172.054688 136.015625 171.996094 C 136.019531 171.394531 133.554688 168.015625 133.066406 167.890625 Z M 264.164062 197.949219 C 263.917969 198.144531 263.757812 198.472656 263.953125 198.757812 C 264.179688 199.082031 264.515625 198.898438 264.765625 198.746094 C 266.0625 197.953125 267.21875 197 268.039062 195.664062 C 266.546875 196.144531 265.335938 197.019531 264.164062 197.949219 Z M 169.832031 158.019531 C 169.898438 158.296875 169.996094 158.648438 170.398438 158.597656 C 170.691406 158.558594 170.816406 158.304688 170.753906 158.035156 C 170.378906 156.40625 170.316406 154.675781 169.160156 153.277344 C 169.023438 154.917969 169.460938 156.464844 169.832031 158.019531 Z M 206.707031 155.261719 C 206.730469 155.113281 206.578125 154.847656 206.4375 154.785156 C 206.128906 154.644531 205.972656 154.921875 205.914062 155.152344 C 205.542969 156.640625 204.996094 158.109375 205.535156 159.703125 C 206.542969 158.367188 206.488281 156.78125 206.707031 155.261719 Z M 241.339844 169.285156 C 240.179688 170.785156 238.652344 172.042969 238.277344 174.050781 C 239.582031 172.640625 240.925781 171.257812 241.339844 169.285156 Z M 105.679688 193.410156 C 106.730469 194.886719 108.234375 195.738281 109.925781 196.347656 C 108.824219 194.941406 107.503906 193.808594 105.679688 193.410156 Z M 278.757812 231.835938 C 280.425781 231.550781 282.207031 231.648438 283.558594 230.355469 C 281.875 230.613281 280.074219 230.480469 278.757812 231.835938 Z M 278.757812 231.835938 " fill-opacity="1" fill-rule="nonzero"/><path fill="#000000" d="M 246.578125 114.453125 C 246.882812 115.414062 246.359375 116.117188 246.054688 116.839844 C 242.835938 124.503906 238.835938 131.789062 235.167969 139.238281 C 229.007812 151.761719 222.636719 164.171875 217.414062 177.144531 C 214.316406 184.835938 210.855469 192.390625 207.6875 200.0625 C 207.441406 200.660156 207.21875 201.855469 206.480469 201.519531 C 205.582031 201.109375 206.429688 200.1875 206.691406 199.550781 C 210.636719 189.996094 214.53125 180.421875 218.59375 170.914062 C 222.714844 161.261719 227.679688 152.003906 232.296875 142.578125 C 236.710938 133.566406 241.203125 124.589844 245.664062 115.601562 C 245.859375 115.207031 245.941406 114.71875 246.578125 114.453125 Z M 132.941406 115.304688 C 133.691406 117.839844 134.425781 120.378906 135.453125 122.828125 C 139.074219 131.460938 143.09375 139.964844 146.015625 148.851562 C 151.886719 166.703125 159.472656 183.902344 165.761719 201.589844 C 165.953125 202.128906 165.996094 203.21875 166.882812 202.886719 C 167.660156 202.597656 166.957031 201.816406 166.800781 201.296875 C 165.351562 196.46875 163.453125 191.792969 161.597656 187.117188 C 152.144531 163.277344 143.335938 139.191406 133.984375 115.316406 C 133.792969 114.832031 133.71875 114.203125 132.9375 114.03125 C 132.691406 114.527344 132.824219 114.914062 132.941406 115.304688 Z M 240.386719 229.375 C 247.773438 226.011719 255.140625 222.609375 262.503906 219.210938 C 273.808594 213.988281 284.996094 208.507812 296.367188 203.417969 C 305.121094 199.496094 314.039062 195.917969 322.445312 191.257812 C 323.0625 190.917969 323.867188 190.773438 324.339844 189.601562 C 294.917969 202.648438 266.304688 216.566406 237.429688 229.941406 C 238.566406 230.277344 239.488281 229.785156 240.386719 229.375 Z M 246.582031 250.128906 C 256.707031 249.816406 266.832031 250.453125 276.960938 250.089844 C 284.21875 249.828125 291.480469 250.304688 298.742188 250.4375 C 307.796875 250.597656 316.835938 250.074219 325.882812 249.730469 C 329.5625 249.59375 333.242188 249.484375 336.921875 249.355469 C 337.324219 249.339844 337.902344 249.34375 337.886719 248.847656 C 337.867188 248.25 337.253906 248.488281 336.898438 248.5 C 334.804688 248.566406 332.710938 248.679688 330.613281 248.757812 C 312.878906 249.445312 295.125 248.855469 277.386719 249.421875 C 266.394531 249.773438 255.402344 248.71875 244.402344 249.226562 C 243.773438 249.257812 243.085938 249.0625 242.464844 249.761719 C 243.878906 250.195312 245.238281 250.167969 246.582031 250.128906 Z M 131.027344 248.871094 C 128.933594 248.804688 126.835938 248.785156 124.742188 248.734375 C 116.042969 248.523438 107.378906 249.515625 98.6875 249.394531 C 90.664062 249.28125 82.640625 248.964844 74.617188 248.851562 C 62.707031 248.6875 50.796875 248.929688 38.886719 249.101562 C 38.40625 249.105469 37.648438 248.921875 37.621094 249.589844 C 37.589844 250.382812 38.382812 250.054688 38.8125 250.054688 C 44.539062 250.09375 50.265625 250.164062 55.992188 250.109375 C 76.59375 249.910156 97.195312 250.21875 117.796875 249.75 C 122.039062 249.652344 126.28125 249.742188 130.527344 249.714844 C 131.152344 249.707031 131.867188 249.910156 132.402344 249.316406 C 132.058594 248.769531 131.503906 248.886719 131.027344 248.871094 Z M 54.355469 190.394531 C 64.542969 195.132812 74.734375 199.84375 84.515625 205.410156 C 97.882812 213.015625 112.117188 218.953125 125.660156 226.238281 C 129.207031 228.148438 132.957031 229.675781 136.625 231.355469 C 136.929688 231.496094 137.390625 231.984375 137.636719 231.363281 C 137.808594 230.945312 137.296875 230.8125 136.996094 230.652344 C 136.003906 230.125 135.015625 229.589844 134.007812 229.09375 C 125.476562 224.90625 116.894531 220.832031 108.425781 216.527344 C 90.214844 207.265625 71.984375 198.042969 53.65625 189.015625 C 53.222656 188.800781 52.8125 188.382812 52.070312 188.777344 C 52.660156 189.699219 53.546875 190.015625 54.355469 190.394531 Z M 188.121094 133.351562 C 188.03125 140.023438 187.910156 146.695312 187.851562 153.367188 C 187.726562 168.136719 187.523438 182.910156 187.777344 197.683594 C 187.789062 198.332031 187.539062 199.417969 188.5 199.386719 C 189.363281 199.355469 188.984375 198.3125 189.007812 197.714844 C 189.394531 186.867188 188.554688 176.027344 188.90625 165.171875 C 189.234375 154.941406 188.992188 144.691406 188.984375 134.449219 C 188.984375 133.816406 189.175781 133.117188 188.546875 132.507812 C 188.136719 132.742188 188.125 133.035156 188.121094 133.351562 Z M 273.113281 166.273438 C 272.757812 166.449219 272.433594 166.710938 272.144531 166.984375 C 268.109375 170.808594 264.117188 174.679688 260.042969 178.464844 C 255.292969 182.871094 250.410156 187.136719 245.703125 191.585938 C 239.027344 197.886719 232.5625 204.40625 226.214844 211.035156 C 225.789062 211.476562 225.386719 211.9375 225.003906 212.414062 C 224.8125 212.652344 224.664062 212.980469 224.917969 213.242188 C 225.25 213.582031 225.574219 213.363281 225.839844 213.101562 C 226.566406 212.382812 227.273438 211.644531 227.996094 210.929688 C 231.84375 207.128906 235.878906 203.5 239.496094 199.496094 C 244.671875 193.765625 250.183594 188.410156 256.066406 183.425781 C 261.796875 178.566406 267.074219 173.234375 272.476562 168.035156 C 272.910156 167.613281 273.285156 167.132812 273.632812 166.742188 C 273.605469 166.277344 273.351562 166.152344 273.113281 166.273438 Z M 104.117188 164.859375 C 104.390625 165.664062 105.046875 166.183594 105.621094 166.746094 C 118.035156 178.941406 129.785156 191.789062 142.1875 203.996094 C 144.953125 206.71875 147.574219 209.574219 150.1875 212.441406 C 150.476562 212.757812 150.851562 213.257812 151.332031 212.824219 C 151.8125 212.390625 151.347656 212 151.046875 211.667969 C 149.945312 210.464844 148.851562 209.25 147.722656 208.074219 C 140.371094 200.414062 132.664062 193.105469 125.230469 185.53125 C 119.371094 179.5625 113.855469 173.261719 107.722656 167.554688 C 106.628906 166.535156 105.523438 165.535156 104.421875 164.527344 C 104.320312 164.636719 104.21875 164.75 104.117188 164.859375 Z M 159.085938 206.621094 C 158.960938 205.4375 158.21875 204.511719 157.597656 203.558594 C 152.535156 195.785156 147.546875 187.960938 142.214844 180.363281 C 141.101562 178.777344 140.011719 177.175781 138.886719 175.597656 C 138.695312 175.324219 138.417969 174.949219 138.019531 175.253906 C 137.699219 175.496094 137.976562 175.808594 138.105469 176.066406 C 138.222656 176.292969 138.371094 176.503906 138.511719 176.714844 C 144.085938 184.882812 149.953125 192.855469 154.894531 201.441406 C 155.992188 203.347656 157.417969 205.066406 158.691406 206.871094 C 158.824219 206.789062 158.957031 206.703125 159.085938 206.621094 Z M 178.570312 199.449219 C 178.5625 197.847656 177.9375 196.367188 177.644531 194.824219 C 175.695312 184.589844 173.769531 174.347656 171.8125 164.113281 C 171.675781 163.410156 171.695312 162.105469 170.960938 162.257812 C 170.050781 162.449219 170.5625 163.632812 170.714844 164.363281 C 172.660156 173.71875 174.992188 182.996094 176.171875 192.5 C 176.492188 195.109375 177.253906 197.636719 178.042969 200.21875 C 178.617188 199.960938 178.570312 199.683594 178.570312 199.449219 Z M 143.019531 218.949219 C 141.476562 217.523438 139.71875 216.382812 137.992188 215.195312 C 132.273438 211.261719 126.550781 207.335938 121.070312 203.0625 C 119.34375 201.714844 117.507812 200.5 115.699219 199.257812 C 115.351562 199.019531 114.808594 198.6875 114.503906 199.234375 C 114.261719 199.671875 114.78125 199.945312 115.097656 200.171875 C 116.128906 200.921875 117.175781 201.652344 118.234375 202.363281 C 120.058594 203.585938 121.925781 204.742188 123.71875 206.011719 C 129.964844 210.4375 135.84375 215.363281 142.246094 219.578125 C 142.757812 219.914062 143.164062 220.597656 144.003906 220.265625 C 143.90625 219.632812 143.414062 219.316406 143.019531 218.949219 Z M 133.878906 239.421875 C 133.65625 239.308594 133.445312 239.128906 133.210938 239.089844 C 128.429688 238.285156 123.832031 236.714844 119.074219 235.800781 C 113.359375 234.707031 107.871094 232.722656 102.183594 231.539062 C 101.171875 231.328125 100.105469 230.816406 98.941406 231.355469 C 99.480469 232.109375 100.21875 232.15625 100.890625 232.324219 C 105.433594 233.480469 110 234.519531 114.582031 235.523438 C 119.253906 236.550781 123.835938 237.976562 128.484375 239.136719 C 130.214844 239.570312 132 239.953125 133.808594 239.800781 C 133.832031 239.675781 133.855469 239.546875 133.878906 239.421875 Z M 233.867188 221.308594 C 235.28125 220.304688 236.664062 219.257812 238.074219 218.25 C 244.832031 213.421875 251.601562 208.609375 258.355469 203.769531 C 259.136719 203.207031 259.839844 202.53125 260.554688 201.878906 C 260.796875 201.664062 261.210938 201.390625 260.847656 201.011719 C 260.585938 200.738281 260.269531 201.019531 260.035156 201.183594 C 258.855469 201.988281 257.699219 202.828125 256.523438 203.636719 C 252.523438 206.371094 249.0625 209.816406 244.925781 212.375 C 241.0625 214.765625 237.359375 217.386719 233.78125 220.183594 C 233.230469 220.609375 232.566406 220.960938 232.386719 221.8125 C 233.125 222.042969 233.476562 221.585938 233.867188 221.308594 Z M 219.417969 203.496094 C 223.226562 197.351562 227.070312 191.230469 231.402344 185.429688 C 233.050781 183.222656 234.511719 180.894531 235.875 178.503906 C 236.121094 178.074219 236.558594 177.445312 236.066406 177.136719 C 235.511719 176.792969 235.222656 177.527344 234.980469 177.929688 C 229.714844 186.648438 223.738281 194.902344 218.242188 203.46875 C 217.574219 204.511719 216.761719 205.488281 216.542969 206.785156 C 217.90625 206 218.652344 204.726562 219.417969 203.496094 Z M 198.066406 199.71875 C 198.207031 199.191406 198.375 198.667969 198.480469 198.132812 C 200.460938 187.960938 202.25 177.75 204.632812 167.65625 C 204.878906 166.621094 205.03125 165.558594 205.191406 164.503906 C 205.25 164.113281 205.277344 163.578125 204.75 163.515625 C 204.222656 163.457031 204.191406 164.011719 204.0625 164.378906 C 204 164.566406 204.003906 164.78125 203.976562 164.980469 C 202.574219 174.332031 200.46875 183.546875 198.613281 192.8125 C 198.164062 195.058594 197.714844 197.347656 197.664062 199.660156 C 197.796875 199.679688 197.933594 199.699219 198.066406 199.71875 Z M 274.921875 232.539062 C 263.789062 234.867188 252.648438 237.148438 241.675781 240.183594 C 243.960938 240.527344 274.21875 233.535156 274.921875 232.539062 Z M 95.085938 230.632812 C 95.234375 230.648438 95.488281 230.484375 95.550781 230.34375 C 95.683594 230.042969 95.429688 229.871094 95.183594 229.804688 C 93.414062 229.3125 91.683594 228.621094 89.761719 228.839844 C 91.410156 229.824219 93.1875 230.421875 95.085938 230.632812 Z M 133.066406 167.890625 C 132.9375 167.855469 132.683594 167.875 132.664062 167.925781 C 132.609375 168.101562 132.5625 168.335938 132.640625 168.480469 C 133.339844 169.789062 134.199219 170.988281 135.171875 172.109375 C 135.351562 172.316406 135.59375 172.421875 135.851562 172.292969 C 135.953125 172.238281 135.988281 172.054688 136.015625 171.996094 C 136.019531 171.394531 133.554688 168.015625 133.066406 167.890625 Z M 264.164062 197.949219 C 263.917969 198.144531 263.757812 198.472656 263.953125 198.757812 C 264.179688 199.082031 264.515625 198.898438 264.765625 198.746094 C 266.0625 197.953125 267.21875 197 268.039062 195.664062 C 266.546875 196.144531 265.335938 197.019531 264.164062 197.949219 Z M 169.832031 158.019531 C 169.898438 158.296875 169.996094 158.648438 170.398438 158.597656 C 170.691406 158.558594 170.816406 158.304688 170.753906 158.035156 C 170.378906 156.40625 170.316406 154.675781 169.160156 153.277344 C 169.023438 154.917969 169.460938 156.464844 169.832031 158.019531 Z M 206.707031 155.261719 C 206.730469 155.113281 206.578125 154.847656 206.4375 154.785156 C 206.128906 154.644531 205.972656 154.921875 205.914062 155.152344 C 205.542969 156.640625 204.996094 158.109375 205.535156 159.703125 C 206.542969 158.367188 206.488281 156.78125 206.707031 155.261719 Z M 241.339844 169.285156 C 240.179688 170.785156 238.652344 172.042969 238.277344 174.050781 C 239.582031 172.640625 240.925781 171.257812 241.339844 169.285156 Z M 105.679688 193.410156 C 106.730469 194.886719 108.234375 195.738281 109.925781 196.347656 C 108.824219 194.941406 107.503906 193.808594 105.679688 193.410156 Z M 278.757812 231.835938 C 280.425781 231.550781 282.207031 231.648438 283.558594 230.355469 C 281.875 230.613281 280.074219 230.480469 278.757812 231.835938 Z M 278.757812 231.835938 " fill-opacity="1" fill-rule="nonzero"/></g><g fill="#000000" fill-opacity="1"><g transform="translate(166.568593, 248.012892)"><g><path d="M 24.125 -33.4375 C 24.820312 -33.351562 25.597656 -33.28125 26.453125 -33.21875 C 27.160156 -33.164062 28 -33.117188 28.96875 -33.078125 C 29.945312 -33.046875 31.003906 -33.03125 32.140625 -33.03125 C 33.253906 -33.03125 34.484375 -33.046875 35.828125 -33.078125 C 37.179688 -33.109375 38.722656 -33.226562 40.453125 -33.4375 L 40.234375 -28.765625 C 39.816406 -28.722656 39.382812 -28.675781 38.9375 -28.625 C 38.550781 -28.59375 38.128906 -28.5625 37.671875 -28.53125 C 37.210938 -28.5 36.75 -28.484375 36.28125 -28.484375 C 36.21875 -27.535156 36.15625 -26.5 36.09375 -25.375 C 36.039062 -24.25 35.988281 -23.082031 35.9375 -21.875 C 35.894531 -20.675781 35.847656 -19.46875 35.796875 -18.25 C 35.753906 -17.03125 35.71875 -15.859375 35.6875 -14.734375 C 35.65625 -13.609375 35.628906 -12.554688 35.609375 -11.578125 C 35.597656 -10.609375 35.59375 -9.773438 35.59375 -9.078125 C 35.59375 -8.179688 35.660156 -7.460938 35.796875 -6.921875 C 35.941406 -6.378906 36.144531 -5.953125 36.40625 -5.640625 C 36.675781 -5.328125 37 -5.101562 37.375 -4.96875 C 37.757812 -4.832031 38.191406 -4.734375 38.671875 -4.671875 L 39.609375 -4.5 L 39.421875 0.140625 C 38.703125 0.078125 37.921875 0.015625 37.078125 -0.046875 C 36.335938 -0.0976562 35.484375 -0.140625 34.515625 -0.171875 C 33.554688 -0.210938 32.507812 -0.234375 31.375 -0.234375 C 30.269531 -0.234375 29.046875 -0.21875 27.703125 -0.1875 C 26.359375 -0.15625 24.820312 -0.046875 23.09375 0.140625 L 23.28125 -4.5 C 23.695312 -4.550781 24.128906 -4.597656 24.578125 -4.640625 C 24.960938 -4.671875 25.390625 -4.707031 25.859375 -4.75 C 26.328125 -4.789062 26.796875 -4.8125 27.265625 -4.8125 C 27.335938 -6.132812 27.414062 -7.632812 27.5 -9.3125 C 27.582031 -10.988281 27.644531 -12.6875 27.6875 -14.40625 C 27.03125 -14.40625 26.21875 -14.394531 25.25 -14.375 C 24.289062 -14.363281 23.21875 -14.34375 22.03125 -14.3125 C 20.851562 -14.28125 19.601562 -14.234375 18.28125 -14.171875 C 16.957031 -14.117188 15.617188 -14.054688 14.265625 -13.984375 C 14.234375 -12.992188 14.21875 -12.078125 14.21875 -11.234375 C 14.21875 -10.398438 14.21875 -9.679688 14.21875 -9.078125 C 14.21875 -8.179688 14.285156 -7.460938 14.421875 -6.921875 C 14.566406 -6.378906 14.769531 -5.953125 15.03125 -5.640625 C 15.300781 -5.328125 15.625 -5.101562 16 -4.96875 C 16.382812 -4.832031 16.816406 -4.734375 17.296875 -4.671875 L 18.234375 -4.5 L 18.046875 0.140625 C 17.328125 0.078125 16.546875 0.015625 15.703125 -0.046875 C 14.960938 -0.0976562 14.109375 -0.140625 13.140625 -0.171875 C 12.179688 -0.210938 11.132812 -0.234375 10 -0.234375 C 8.90625 -0.234375 7.679688 -0.21875 6.328125 -0.1875 C 4.984375 -0.15625 3.445312 -0.046875 1.71875 0.140625 L 1.921875 -4.5 C 2.328125 -4.550781 2.753906 -4.597656 3.203125 -4.640625 C 3.585938 -4.671875 4.015625 -4.707031 4.484375 -4.75 C 4.953125 -4.789062 5.421875 -4.8125 5.890625 -4.8125 C 5.953125 -5.738281 6.003906 -6.765625 6.046875 -7.890625 C 6.097656 -9.015625 6.148438 -10.175781 6.203125 -11.375 C 6.265625 -12.582031 6.316406 -13.800781 6.359375 -15.03125 C 6.398438 -16.257812 6.4375 -17.4375 6.46875 -18.5625 C 6.5 -19.6875 6.519531 -20.734375 6.53125 -21.703125 C 6.550781 -22.679688 6.5625 -23.519531 6.5625 -24.21875 C 6.5625 -25.09375 6.488281 -25.800781 6.34375 -26.34375 C 6.195312 -26.894531 5.992188 -27.320312 5.734375 -27.625 C 5.472656 -27.9375 5.148438 -28.160156 4.765625 -28.296875 C 4.378906 -28.429688 3.945312 -28.539062 3.46875 -28.625 L 2.53125 -28.765625 L 2.75 -33.4375 C 3.457031 -33.351562 4.234375 -33.28125 5.078125 -33.21875 C 5.796875 -33.164062 6.640625 -33.117188 7.609375 -33.078125 C 8.585938 -33.046875 9.648438 -33.03125 10.796875 -33.03125 C 11.898438 -33.03125 13.125 -33.046875 14.46875 -33.078125 C 15.8125 -33.109375 17.347656 -33.226562 19.078125 -33.4375 L 18.859375 -28.765625 C 18.441406 -28.722656 18.007812 -28.675781 17.5625 -28.625 C 17.1875 -28.59375 16.765625 -28.5625 16.296875 -28.53125 C 15.835938 -28.5 15.375 -28.484375 14.90625 -28.484375 L 14.453125 -19.84375 L 27.875 -19.84375 C 27.914062 -20.707031 27.9375 -21.515625 27.9375 -22.265625 C 27.9375 -23.015625 27.9375 -23.664062 27.9375 -24.21875 C 27.9375 -25.09375 27.863281 -25.800781 27.71875 -26.34375 C 27.570312 -26.894531 27.363281 -27.320312 27.09375 -27.625 C 26.832031 -27.9375 26.507812 -28.160156 26.125 -28.296875 C 25.75 -28.429688 25.320312 -28.539062 24.84375 -28.625 L 23.90625 -28.765625 Z M 24.125 -33.4375 "/></g></g></g></svg>